<svg width="1440" height="1127" viewBox="0 0 1440 1127" fill="none" xmlns="http://www.w3.org/2000/svg">
<g opacity="0.4">
<mask id="mask0_501_3" style="mask-type:alpha" maskUnits="userSpaceOnUse" x="218" y="-188" width="1074" height="1298">
<rect x="330.273" y="-187.493" width="965.079" height="1213.44" transform="rotate(5.30217 330.273 -187.493)" fill="url(#paint0_linear_501_3)"/>
</mask>
<g mask="url(#mask0_501_3)">
<path d="M1089.66 665.729C1071.49 861.496 898.063 1005.47 702.296 987.3C506.529 969.132 362.556 795.703 380.725 599.936C398.893 404.169 547.841 523.986 743.608 542.155C939.375 560.323 1107.83 469.962 1089.66 665.729Z" fill="#579AFF"/>
<g filter="url(#filter0_f_501_3)">
<path d="M1089 672.797C1074.94 824.338 904.837 932.458 709.07 914.289C513.303 896.121 366.003 758.545 380.067 607.004C394.13 455.463 564.232 347.344 759.999 365.512C955.766 383.68 1103.07 521.256 1089 672.797Z" fill="#579AFF"/>
</g>
<g filter="url(#filter1_f_501_3)">
<ellipse cx="735.845" cy="625.772" rx="355.991" ry="275.568" transform="rotate(5.30217 735.845 625.772)" fill="#579AFF"/>
</g>
<g filter="url(#filter2_f_501_3)">
<ellipse cx="739.453" cy="586.905" rx="355.991" ry="276.751" transform="rotate(5.30217 739.453 586.905)" fill="#579AFF"/>
</g>
<g filter="url(#filter3_f_501_3)">
<ellipse cx="750.272" cy="470.322" rx="355.991" ry="275.568" transform="rotate(5.30217 750.272 470.322)" fill="#579AFF"/>
</g>
<g filter="url(#filter4_f_501_3)">
<ellipse cx="764.917" cy="312.52" rx="299.222" ry="275.568" transform="rotate(5.30217 764.917 312.52)" fill="#579AFF"/>
</g>
</g>
<mask id="mask1_501_3" style="mask-type:alpha" maskUnits="userSpaceOnUse" x="317" y="-88" width="1513" height="1398">
<rect x="1409.73" y="-87.3118" width="965.079" height="1213.44" transform="rotate(64.2136 1409.73 -87.3118)" fill="url(#paint1_linear_501_3)"/>
</mask>
<g mask="url(#mask1_501_3)">
<path d="M1071.18 1003.58C894.148 1089.11 681.302 1014.93 595.774 837.899C510.246 660.868 584.424 448.022 761.455 362.494C938.485 276.966 912.788 466.39 998.316 643.421C1083.84 820.451 1248.21 918.051 1071.18 1003.58Z" fill="#FF4DED"/>
<g filter="url(#filter5_f_501_3)">
<path d="M1064.79 1006.67C927.752 1072.87 747.328 983.031 661.8 806.001C576.272 628.97 618.028 431.788 755.065 365.582C892.102 299.376 1072.53 389.217 1158.05 566.247C1243.58 743.278 1201.83 940.46 1064.79 1006.67Z" fill="#FF4DED"/>
</g>
<g filter="url(#filter6_f_501_3)">
<ellipse cx="922.707" cy="679.948" rx="355.991" ry="275.568" transform="rotate(64.2136 922.707 679.948)" fill="#FF4DED"/>
</g>
<g filter="url(#filter7_f_501_3)">
<ellipse cx="957.848" cy="662.972" rx="355.991" ry="276.75" transform="rotate(64.2136 957.848 662.972)" fill="#FF4DED"/>
</g>
<g filter="url(#filter8_f_501_3)">
<ellipse cx="1063.28" cy="612.037" rx="355.991" ry="275.568" transform="rotate(64.2136 1063.28 612.037)" fill="#FF4DED"/>
</g>
<g filter="url(#filter9_f_501_3)">
<ellipse cx="1205.98" cy="543.094" rx="299.222" ry="275.568" transform="rotate(64.2136 1205.98 543.094)" fill="#FF4DED"/>
</g>
</g>
</g>
<g opacity="0.4">
<mask id="mask2_501_3" style="mask-type:alpha" maskUnits="userSpaceOnUse" x="339" y="518" width="1501" height="533">
<rect x="1839.61" y="657.113" width="394.765" height="1469.55" transform="rotate(95.4175 1839.61 657.113)" fill="url(#paint2_linear_501_3)"/>
</mask>
<g mask="url(#mask2_501_3)">
<path d="M867.684 908.022C630.644 885.542 444.64 802.415 452.233 722.351C459.826 642.288 658.14 595.607 895.18 618.087C1132.22 640.567 998.819 693.404 991.227 773.467C983.634 853.531 1104.72 930.502 867.684 908.022Z" fill="#57AEFF"/>
<g filter="url(#filter10_f_501_3)">
<path d="M859.124 907.209C675.634 889.808 533.042 810.797 540.635 730.734C548.228 650.67 703.131 599.873 886.62 617.274C1070.11 634.675 1212.7 713.686 1205.11 793.749C1197.52 873.813 1042.61 924.61 859.124 907.209Z" fill="#57AEFF"/>
</g>
<g filter="url(#filter11_f_501_3)">
<ellipse cx="889.981" cy="763.864" rx="145.618" ry="333.728" transform="rotate(95.4175 889.981 763.864)" fill="#57AEFF"/>
</g>
<g filter="url(#filter12_f_501_3)">
<ellipse cx="937.042" cy="768.328" rx="145.618" ry="335.16" transform="rotate(95.4175 937.042 768.328)" fill="#57AEFF"/>
</g>
<g filter="url(#filter13_f_501_3)">
<ellipse cx="1078.2" cy="781.714" rx="145.618" ry="333.728" transform="rotate(95.4175 1078.2 781.714)" fill="#57AEFF"/>
</g>
<g filter="url(#filter14_f_501_3)">
<ellipse cx="1269.27" cy="799.834" rx="122.397" ry="333.728" transform="rotate(95.4175 1269.27 799.834)" fill="#57AEFF"/>
</g>
</g>
<mask id="mask3_501_3" style="mask-type:alpha" maskUnits="userSpaceOnUse" x="67" y="603" width="1731" height="605">
<rect width="1021.29" height="869.477" transform="matrix(-0.994335 0.106288 -0.822244 -0.569136 1797.74 1098.58)" fill="url(#paint3_linear_501_3)"/>
</mask>
<g mask="url(#mask3_501_3)">
<path d="M459.546 874.582C343.649 794.41 417.435 711.51 624.349 689.42C831.264 667.329 1092.95 714.413 1208.85 794.585C1324.75 874.756 1094.79 849.628 887.88 871.718C680.965 893.809 575.442 954.754 459.546 874.582Z" fill="#4A46FF"/>
<g filter="url(#filter15_f_501_3)">
<path d="M455.362 871.688C365.648 809.629 460.658 741.411 667.573 719.321C874.488 697.23 1114.95 729.631 1204.67 791.691C1294.38 853.751 1199.37 921.968 992.455 944.059C785.54 966.15 545.075 933.748 455.362 871.688Z" fill="#4A46FF"/>
</g>
<g filter="url(#filter16_f_501_3)">
<ellipse cx="376.724" cy="197.454" rx="376.724" ry="197.454" transform="matrix(-0.994499 0.106175 -0.822675 -0.569089 1375.48 909.848)" fill="#4A46FF"/>
</g>
<g filter="url(#filter17_f_501_3)">
<ellipse cx="376.724" cy="198.302" rx="376.724" ry="198.302" transform="matrix(-0.994499 0.106175 -0.822675 -0.569089 1399.18 926.245)" fill="#4A46FF"/>
</g>
<g filter="url(#filter18_f_501_3)">
<ellipse cx="376.724" cy="197.454" rx="376.724" ry="197.454" transform="matrix(-0.994499 0.106175 -0.822675 -0.569089 1467.5 973.507)" fill="#4A46FF"/>
</g>
<g filter="url(#filter19_f_501_3)">
<ellipse cx="316.649" cy="197.454" rx="316.649" ry="197.454" transform="matrix(-0.994499 0.106175 -0.822675 -0.569089 1501.18 1044.51)" fill="#4A46FF"/>
</g>
</g>
</g>
<g opacity="0.4">
<mask id="mask4_501_3" style="mask-type:alpha" maskUnits="userSpaceOnUse" x="-246" y="-396" width="1455" height="1593">
<rect x="-245.024" y="9.65771" width="1027.05" height="1291.36" transform="rotate(-23.2549 -245.024 9.65771)" fill="url(#paint4_linear_501_3)"/>
</mask>
<g mask="url(#mask4_501_3)">
<path d="M898.862 420.876C981.472 613.109 892.604 835.914 700.371 918.524C508.137 1001.13 285.332 912.266 202.722 720.032C120.112 527.798 320.294 564.023 512.528 481.413C704.762 398.803 816.253 228.642 898.862 420.876Z" fill="#2C67FF"/>
<g filter="url(#filter20_f_501_3)">
<path d="M901.849 427.81C965.796 576.615 861.799 764.215 669.565 846.824C477.331 929.434 269.655 875.772 205.708 726.966C141.761 578.161 245.758 390.561 437.992 307.952C630.226 225.342 837.901 279.004 901.849 427.81Z" fill="#2C67FF"/>
</g>
<g filter="url(#filter21_f_501_3)">
<ellipse cx="547.813" cy="563.514" rx="378.849" ry="293.262" transform="rotate(-23.2549 547.813 563.514)" fill="#2C67FF"/>
</g>
<g filter="url(#filter22_f_501_3)">
<ellipse cx="531.416" cy="525.356" rx="378.849" ry="294.52" transform="rotate(-23.2549 531.416 525.356)" fill="#2C67FF"/>
</g>
<g filter="url(#filter23_f_501_3)">
<ellipse cx="482.219" cy="410.871" rx="378.849" ry="293.262" transform="rotate(-23.2549 482.219 410.871)" fill="#2C67FF"/>
</g>
<g filter="url(#filter24_f_501_3)">
<ellipse cx="415.627" cy="255.917" rx="318.435" ry="293.262" transform="rotate(-23.2549 415.627 255.917)" fill="#2C67FF"/>
</g>
</g>
<mask id="mask5_501_3" style="mask-type:alpha" maskUnits="userSpaceOnUse" x="-145" y="249" width="880" height="741">
<rect x="-144.168" y="880.155" width="636.095" height="799.795" transform="rotate(-82.1664 -144.168 880.155)" fill="url(#paint5_linear_501_3)"/>
</mask>
<g mask="url(#mask5_501_3)">
<path d="M439.757 404.963C568.134 422.625 657.887 541.014 640.225 669.391C622.562 797.769 504.174 887.521 375.796 869.859C247.418 852.197 330.651 757.607 348.313 629.23C365.975 500.852 311.379 387.3 439.757 404.963Z" fill="#094EFF"/>
<g filter="url(#filter25_f_501_3)">
<path d="M444.391 405.601C543.766 419.273 610.008 534.427 592.346 662.805C574.684 791.182 479.806 884.17 380.431 870.497C281.055 856.825 214.814 741.671 232.476 613.294C250.138 484.916 345.016 391.929 444.391 405.601Z" fill="#094EFF"/>
</g>
<g filter="url(#filter26_f_501_3)">
<ellipse cx="403.146" cy="636.773" rx="234.638" ry="181.63" transform="rotate(-82.1664 403.146 636.773)" fill="#094EFF"/>
</g>
<g filter="url(#filter27_f_501_3)">
<ellipse cx="377.657" cy="633.269" rx="234.638" ry="182.409" transform="rotate(-82.1664 377.657 633.269)" fill="#094EFF"/>
</g>
<g filter="url(#filter28_f_501_3)">
<ellipse cx="301.206" cy="622.749" rx="234.638" ry="181.63" transform="rotate(-82.1664 301.206 622.749)" fill="#094EFF"/>
</g>
<g filter="url(#filter29_f_501_3)">
<ellipse cx="197.725" cy="608.512" rx="197.22" ry="181.63" transform="rotate(-82.1664 197.725 608.512)" fill="#094EFF"/>
</g>
</g>
</g>
<g opacity="0.4">
<mask id="mask6_501_3" style="mask-type:alpha" maskUnits="userSpaceOnUse" x="98" y="275" width="1165" height="1158">
<rect x="600.119" y="1432.32" width="726.957" height="914.042" transform="rotate(-133.6 600.119 1432.32)" fill="url(#paint6_linear_501_3)"/>
</mask>
<g mask="url(#mask6_501_3)">
<path d="M591.534 571.98C698.782 469.849 868.517 473.998 970.648 581.247C1072.78 688.495 1068.63 858.231 961.381 960.361C854.133 1062.49 828.911 920.725 726.781 813.477C624.65 706.228 484.285 674.111 591.534 571.98Z" fill="#0066FF"/>
<g filter="url(#filter30_f_501_3)">
<path d="M595.4 568.292C678.42 489.234 828.514 512.087 930.645 619.335C1032.78 726.584 1048.27 877.615 965.248 956.673C882.229 1035.73 732.135 1012.88 630.004 905.629C527.873 798.381 512.381 647.35 595.4 568.292Z" fill="#0066FF"/>
</g>
<g filter="url(#filter31_f_501_3)">
<ellipse cx="772.585" cy="769.855" rx="268.154" ry="207.575" transform="rotate(-133.6 772.585 769.855)" fill="#0066FF"/>
</g>
<g filter="url(#filter32_f_501_3)">
<ellipse cx="751.296" cy="790.128" rx="268.154" ry="208.466" transform="rotate(-133.6 751.296 790.128)" fill="#0066FF"/>
</g>
<g filter="url(#filter33_f_501_3)">
<ellipse cx="687.424" cy="850.951" rx="268.154" ry="207.575" transform="rotate(-133.6 687.424 850.951)" fill="#0066FF"/>
</g>
<g filter="url(#filter34_f_501_3)">
<ellipse cx="600.974" cy="933.277" rx="225.392" ry="207.575" transform="rotate(-133.6 600.974 933.277)" fill="#0066FF"/>
</g>
</g>
<mask id="mask7_501_3" style="mask-type:alpha" maskUnits="userSpaceOnUse" x="590" y="598" width="564" height="651">
<rect x="1153.01" y="1151.17" width="450.236" height="566.106" transform="rotate(167.489 1153.01 1151.17)" fill="url(#paint7_linear_501_3)"/>
</mask>
<g mask="url(#mask7_501_3)">
<path d="M693.953 880.587C674.082 791.041 730.565 702.343 820.11 682.472C909.656 662.602 998.354 719.085 1018.22 808.63C1038.09 898.175 954.838 866.215 865.292 886.085C775.747 905.955 713.823 970.132 693.953 880.587Z" fill="#096BFF"/>
<g filter="url(#filter35_f_501_3)">
<path d="M693.236 877.354C677.854 808.038 737.976 735.739 827.522 715.868C917.067 695.998 1002.13 736.082 1017.51 805.397C1032.89 874.713 972.767 947.013 883.222 966.883C793.677 986.753 708.617 946.67 693.236 877.354Z" fill="#096BFF"/>
</g>
<g filter="url(#filter36_f_501_3)">
<ellipse cx="856.805" cy="847.839" rx="166.08" ry="128.56" transform="rotate(167.489 856.805 847.839)" fill="#096BFF"/>
</g>
<g filter="url(#filter37_f_501_3)">
<ellipse cx="860.752" cy="865.617" rx="166.08" ry="129.112" transform="rotate(167.489 860.752 865.617)" fill="#096BFF"/>
</g>
<g filter="url(#filter38_f_501_3)">
<ellipse cx="872.583" cy="918.943" rx="166.08" ry="128.56" transform="rotate(167.489 872.583 918.943)" fill="#096BFF"/>
</g>
<g filter="url(#filter39_f_501_3)">
<ellipse cx="888.6" cy="991.122" rx="139.595" ry="128.56" transform="rotate(167.489 888.6 991.122)" fill="#096BFF"/>
</g>
</g>
</g>
<defs>
<filter id="filter0_f_501_3" x="373.029" y="357.411" width="723.012" height="564.98" filterUnits="userSpaceOnUse" color-interpolation-filters="sRGB">
<feFlood flood-opacity="0" result="BackgroundImageFix"/>
<feBlend mode="normal" in="SourceGraphic" in2="BackgroundImageFix" result="shape"/>
<feGaussianBlur stdDeviation="3.0545" result="effect1_foregroundBlur_501_3"/>
</filter>
<filter id="filter1_f_501_3" x="359.066" y="328.009" width="753.556" height="595.525" filterUnits="userSpaceOnUse" color-interpolation-filters="sRGB">
<feFlood flood-opacity="0" result="BackgroundImageFix"/>
<feBlend mode="normal" in="SourceGraphic" in2="BackgroundImageFix" result="shape"/>
<feGaussianBlur stdDeviation="10.6908" result="effect1_foregroundBlur_501_3"/>
</filter>
<filter id="filter2_f_501_3" x="332.122" y="257.428" width="814.662" height="658.953" filterUnits="userSpaceOnUse" color-interpolation-filters="sRGB">
<feFlood flood-opacity="0" result="BackgroundImageFix"/>
<feBlend mode="normal" in="SourceGraphic" in2="BackgroundImageFix" result="shape"/>
<feGaussianBlur stdDeviation="25.9633" result="effect1_foregroundBlur_501_3"/>
</filter>
<filter id="filter3_f_501_3" x="281.859" y="80.924" width="936.826" height="778.795" filterUnits="userSpaceOnUse" color-interpolation-filters="sRGB">
<feFlood flood-opacity="0" result="BackgroundImageFix"/>
<feBlend mode="normal" in="SourceGraphic" in2="BackgroundImageFix" result="shape"/>
<feGaussianBlur stdDeviation="56.5083" result="effect1_foregroundBlur_501_3"/>
</filter>
<filter id="filter4_f_501_3" x="267.329" y="-161.822" width="995.175" height="948.684" filterUnits="userSpaceOnUse" color-interpolation-filters="sRGB">
<feFlood flood-opacity="0" result="BackgroundImageFix"/>
<feBlend mode="normal" in="SourceGraphic" in2="BackgroundImageFix" result="shape"/>
<feGaussianBlur stdDeviation="99.2713" result="effect1_foregroundBlur_501_3"/>
</filter>
<filter id="filter5_f_501_3" x="611.29" y="337.698" width="597.274" height="696.853" filterUnits="userSpaceOnUse" color-interpolation-filters="sRGB">
<feFlood flood-opacity="0" result="BackgroundImageFix"/>
<feBlend mode="normal" in="SourceGraphic" in2="BackgroundImageFix" result="shape"/>
<feGaussianBlur stdDeviation="3.0545" result="effect1_foregroundBlur_501_3"/>
</filter>
<filter id="filter6_f_501_3" x="608.797" y="316.248" width="627.819" height="727.398" filterUnits="userSpaceOnUse" color-interpolation-filters="sRGB">
<feFlood flood-opacity="0" result="BackgroundImageFix"/>
<feBlend mode="normal" in="SourceGraphic" in2="BackgroundImageFix" result="shape"/>
<feGaussianBlur stdDeviation="10.6908" result="effect1_foregroundBlur_501_3"/>
</filter>
<filter id="filter7_f_501_3" x="612.489" y="268.548" width="690.718" height="788.849" filterUnits="userSpaceOnUse" color-interpolation-filters="sRGB">
<feFlood flood-opacity="0" result="BackgroundImageFix"/>
<feBlend mode="normal" in="SourceGraphic" in2="BackgroundImageFix" result="shape"/>
<feGaussianBlur stdDeviation="25.9633" result="effect1_foregroundBlur_501_3"/>
</filter>
<filter id="filter8_f_501_3" x="657.732" y="156.703" width="811.089" height="910.668" filterUnits="userSpaceOnUse" color-interpolation-filters="sRGB">
<feFlood flood-opacity="0" result="BackgroundImageFix"/>
<feBlend mode="normal" in="SourceGraphic" in2="BackgroundImageFix" result="shape"/>
<feGaussianBlur stdDeviation="56.5083" result="effect1_foregroundBlur_501_3"/>
</filter>
<filter id="filter9_f_501_3" x="727.18" y="49.5871" width="957.594" height="987.014" filterUnits="userSpaceOnUse" color-interpolation-filters="sRGB">
<feFlood flood-opacity="0" result="BackgroundImageFix"/>
<feBlend mode="normal" in="SourceGraphic" in2="BackgroundImageFix" result="shape"/>
<feGaussianBlur stdDeviation="99.2713" result="effect1_foregroundBlur_501_3"/>
</filter>
<filter id="filter10_f_501_3" x="536.067" y="609.58" width="673.609" height="305.322" filterUnits="userSpaceOnUse" color-interpolation-filters="sRGB">
<feFlood flood-opacity="0" result="BackgroundImageFix"/>
<feBlend mode="normal" in="SourceGraphic" in2="BackgroundImageFix" result="shape"/>
<feGaussianBlur stdDeviation="2.13896" result="effect1_foregroundBlur_501_3"/>
</filter>
<filter id="filter11_f_501_3" x="542.481" y="600.508" width="694.998" height="326.712" filterUnits="userSpaceOnUse" color-interpolation-filters="sRGB">
<feFlood flood-opacity="0" result="BackgroundImageFix"/>
<feBlend mode="normal" in="SourceGraphic" in2="BackgroundImageFix" result="shape"/>
<feGaussianBlur stdDeviation="7.48635" result="effect1_foregroundBlur_501_3"/>
</filter>
<filter id="filter12_f_501_3" x="566.729" y="583.554" width="740.627" height="369.549" filterUnits="userSpaceOnUse" color-interpolation-filters="sRGB">
<feFlood flood-opacity="0" result="BackgroundImageFix"/>
<feBlend mode="normal" in="SourceGraphic" in2="BackgroundImageFix" result="shape"/>
<feGaussianBlur stdDeviation="18.1811" result="effect1_foregroundBlur_501_3"/>
</filter>
<filter id="filter13_f_501_3" x="666.535" y="554.189" width="823.336" height="455.049" filterUnits="userSpaceOnUse" color-interpolation-filters="sRGB">
<feFlood flood-opacity="0" result="BackgroundImageFix"/>
<feBlend mode="normal" in="SourceGraphic" in2="BackgroundImageFix" result="shape"/>
<feGaussianBlur stdDeviation="39.5707" result="effect1_foregroundBlur_501_3"/>
</filter>
<filter id="filter14_f_501_3" x="797.801" y="534.914" width="942.948" height="529.841" filterUnits="userSpaceOnUse" color-interpolation-filters="sRGB">
<feFlood flood-opacity="0" result="BackgroundImageFix"/>
<feBlend mode="normal" in="SourceGraphic" in2="BackgroundImageFix" result="shape"/>
<feGaussianBlur stdDeviation="69.5161" result="effect1_foregroundBlur_501_3"/>
</filter>
<filter id="filter15_f_501_3" x="417.28" y="708.104" width="825.467" height="247.172" filterUnits="userSpaceOnUse" color-interpolation-filters="sRGB">
<feFlood flood-opacity="0" result="BackgroundImageFix"/>
<feBlend mode="normal" in="SourceGraphic" in2="BackgroundImageFix" result="shape"/>
<feGaussianBlur stdDeviation="2.13896" result="effect1_foregroundBlur_501_3"/>
</filter>
<filter id="filter16_f_501_3" x="414.955" y="703.196" width="846.857" height="268.562" filterUnits="userSpaceOnUse" color-interpolation-filters="sRGB">
<feFlood flood-opacity="0" result="BackgroundImageFix"/>
<feBlend mode="normal" in="SourceGraphic" in2="BackgroundImageFix" result="shape"/>
<feGaussianBlur stdDeviation="7.48635" result="effect1_foregroundBlur_501_3"/>
</filter>
<filter id="filter17_f_501_3" x="416.291" y="697.267" width="890.191" height="312.25" filterUnits="userSpaceOnUse" color-interpolation-filters="sRGB">
<feFlood flood-opacity="0" result="BackgroundImageFix"/>
<feBlend mode="normal" in="SourceGraphic" in2="BackgroundImageFix" result="shape"/>
<feGaussianBlur stdDeviation="18.1811" result="effect1_foregroundBlur_501_3"/>
</filter>
<filter id="filter18_f_501_3" x="442.811" y="702.687" width="975.194" height="396.899" filterUnits="userSpaceOnUse" color-interpolation-filters="sRGB">
<feFlood flood-opacity="0" result="BackgroundImageFix"/>
<feBlend mode="normal" in="SourceGraphic" in2="BackgroundImageFix" result="shape"/>
<feGaussianBlur stdDeviation="39.5707" result="effect1_foregroundBlur_501_3"/>
</filter>
<filter id="filter19_f_501_3" x="530.387" y="709.407" width="986.883" height="512.708" filterUnits="userSpaceOnUse" color-interpolation-filters="sRGB">
<feFlood flood-opacity="0" result="BackgroundImageFix"/>
<feBlend mode="normal" in="SourceGraphic" in2="BackgroundImageFix" result="shape"/>
<feGaussianBlur stdDeviation="69.5161" result="effect1_foregroundBlur_501_3"/>
</filter>
<filter id="filter20_f_501_3" x="179.778" y="262.083" width="748" height="630.609" filterUnits="userSpaceOnUse" color-interpolation-filters="sRGB">
<feFlood flood-opacity="0" result="BackgroundImageFix"/>
<feBlend mode="normal" in="SourceGraphic" in2="BackgroundImageFix" result="shape"/>
<feGaussianBlur stdDeviation="3.53844" result="effect1_foregroundBlur_501_3"/>
</filter>
<filter id="filter21_f_501_3" x="156.121" y="230.518" width="783.384" height="665.994" filterUnits="userSpaceOnUse" color-interpolation-filters="sRGB">
<feFlood flood-opacity="0" result="BackgroundImageFix"/>
<feBlend mode="normal" in="SourceGraphic" in2="BackgroundImageFix" result="shape"/>
<feGaussianBlur stdDeviation="12.3845" result="effect1_foregroundBlur_501_3"/>
</filter>
<filter id="filter22_f_501_3" x="104.183" y="155.962" width="854.467" height="738.787" filterUnits="userSpaceOnUse" color-interpolation-filters="sRGB">
<feFlood flood-opacity="0" result="BackgroundImageFix"/>
<feBlend mode="normal" in="SourceGraphic" in2="BackgroundImageFix" result="shape"/>
<feGaussianBlur stdDeviation="30.0767" result="effect1_foregroundBlur_501_3"/>
</filter>
<filter id="filter23_f_501_3" x="-15.6265" y="-28.2786" width="995.69" height="878.3" filterUnits="userSpaceOnUse" color-interpolation-filters="sRGB">
<feFlood flood-opacity="0" result="BackgroundImageFix"/>
<feBlend mode="normal" in="SourceGraphic" in2="BackgroundImageFix" result="shape"/>
<feGaussianBlur stdDeviation="65.4612" result="effect1_foregroundBlur_501_3"/>
</filter>
<filter id="filter24_f_501_3" x="-129.098" y="-271.479" width="1089.45" height="1054.79" filterUnits="userSpaceOnUse" color-interpolation-filters="sRGB">
<feFlood flood-opacity="0" result="BackgroundImageFix"/>
<feBlend mode="normal" in="SourceGraphic" in2="BackgroundImageFix" result="shape"/>
<feGaussianBlur stdDeviation="114.999" result="effect1_foregroundBlur_501_3"/>
</filter>
<filter id="filter25_f_501_3" x="222.548" y="397.19" width="379.725" height="481.718" filterUnits="userSpaceOnUse" color-interpolation-filters="sRGB">
<feFlood flood-opacity="0" result="BackgroundImageFix"/>
<feBlend mode="normal" in="SourceGraphic" in2="BackgroundImageFix" result="shape"/>
<feGaussianBlur stdDeviation="3.53844" result="effect1_foregroundBlur_501_3"/>
</filter>
<filter id="filter26_f_501_3" x="195.591" y="378.222" width="415.11" height="517.102" filterUnits="userSpaceOnUse" color-interpolation-filters="sRGB">
<feFlood flood-opacity="0" result="BackgroundImageFix"/>
<feBlend mode="normal" in="SourceGraphic" in2="BackgroundImageFix" result="shape"/>
<feGaussianBlur stdDeviation="12.3845" result="effect1_foregroundBlur_501_3"/>
</filter>
<filter id="filter27_f_501_3" x="133.957" y="339.322" width="487.399" height="587.894" filterUnits="userSpaceOnUse" color-interpolation-filters="sRGB">
<feFlood flood-opacity="0" result="BackgroundImageFix"/>
<feBlend mode="normal" in="SourceGraphic" in2="BackgroundImageFix" result="shape"/>
<feGaussianBlur stdDeviation="30.0767" result="effect1_foregroundBlur_501_3"/>
</filter>
<filter id="filter28_f_501_3" x="-12.5018" y="258.044" width="627.416" height="729.409" filterUnits="userSpaceOnUse" color-interpolation-filters="sRGB">
<feFlood flood-opacity="0" result="BackgroundImageFix"/>
<feBlend mode="normal" in="SourceGraphic" in2="BackgroundImageFix" result="shape"/>
<feGaussianBlur stdDeviation="65.4612" result="effect1_foregroundBlur_501_3"/>
</filter>
<filter id="filter29_f_501_3" x="-214.23" y="181.55" width="823.91" height="853.924" filterUnits="userSpaceOnUse" color-interpolation-filters="sRGB">
<feFlood flood-opacity="0" result="BackgroundImageFix"/>
<feBlend mode="normal" in="SourceGraphic" in2="BackgroundImageFix" result="shape"/>
<feGaussianBlur stdDeviation="114.999" result="effect1_foregroundBlur_501_3"/>
</filter>
<filter id="filter30_f_501_3" x="534.927" y="514.141" width="490.795" height="496.683" filterUnits="userSpaceOnUse" color-interpolation-filters="sRGB">
<feFlood flood-opacity="0" result="BackgroundImageFix"/>
<feBlend mode="normal" in="SourceGraphic" in2="BackgroundImageFix" result="shape"/>
<feGaussianBlur stdDeviation="3.53844" result="effect1_foregroundBlur_501_3"/>
</filter>
<filter id="filter31_f_501_3" x="509.495" y="503.822" width="526.179" height="532.068" filterUnits="userSpaceOnUse" color-interpolation-filters="sRGB">
<feFlood flood-opacity="0" result="BackgroundImageFix"/>
<feBlend mode="normal" in="SourceGraphic" in2="BackgroundImageFix" result="shape"/>
<feGaussianBlur stdDeviation="12.3845" result="effect1_foregroundBlur_501_3"/>
</filter>
<filter id="filter32_f_501_3" x="452.415" y="488.345" width="597.762" height="603.566" filterUnits="userSpaceOnUse" color-interpolation-filters="sRGB">
<feFlood flood-opacity="0" result="BackgroundImageFix"/>
<feBlend mode="normal" in="SourceGraphic" in2="BackgroundImageFix" result="shape"/>
<feGaussianBlur stdDeviation="30.0767" result="effect1_foregroundBlur_501_3"/>
</filter>
<filter id="filter33_f_501_3" x="318.181" y="478.764" width="738.486" height="744.374" filterUnits="userSpaceOnUse" color-interpolation-filters="sRGB">
<feFlood flood-opacity="0" result="BackgroundImageFix"/>
<feBlend mode="normal" in="SourceGraphic" in2="BackgroundImageFix" result="shape"/>
<feGaussianBlur stdDeviation="65.4612" result="effect1_foregroundBlur_501_3"/>
</filter>
<filter id="filter34_f_501_3" x="154.744" y="486.174" width="892.461" height="894.205" filterUnits="userSpaceOnUse" color-interpolation-filters="sRGB">
<feFlood flood-opacity="0" result="BackgroundImageFix"/>
<feBlend mode="normal" in="SourceGraphic" in2="BackgroundImageFix" result="shape"/>
<feGaussianBlur stdDeviation="114.999" result="effect1_foregroundBlur_501_3"/>
</filter>
<filter id="filter35_f_501_3" x="683.758" y="703.703" width="343.228" height="275.346" filterUnits="userSpaceOnUse" color-interpolation-filters="sRGB">
<feFlood flood-opacity="0" result="BackgroundImageFix"/>
<feBlend mode="normal" in="SourceGraphic" in2="BackgroundImageFix" result="shape"/>
<feGaussianBlur stdDeviation="3.53844" result="effect1_foregroundBlur_501_3"/>
</filter>
<filter id="filter36_f_501_3" x="667.498" y="692.474" width="378.613" height="310.73" filterUnits="userSpaceOnUse" color-interpolation-filters="sRGB">
<feFlood flood-opacity="0" result="BackgroundImageFix"/>
<feBlend mode="normal" in="SourceGraphic" in2="BackgroundImageFix" result="shape"/>
<feGaussianBlur stdDeviation="12.3845" result="effect1_foregroundBlur_501_3"/>
</filter>
<filter id="filter37_f_501_3" x="636.04" y="674.349" width="449.422" height="382.535" filterUnits="userSpaceOnUse" color-interpolation-filters="sRGB">
<feFlood flood-opacity="0" result="BackgroundImageFix"/>
<feBlend mode="normal" in="SourceGraphic" in2="BackgroundImageFix" result="shape"/>
<feGaussianBlur stdDeviation="30.0767" result="effect1_foregroundBlur_501_3"/>
</filter>
<filter id="filter38_f_501_3" x="577.124" y="657.425" width="590.919" height="523.036" filterUnits="userSpaceOnUse" color-interpolation-filters="sRGB">
<feFlood flood-opacity="0" result="BackgroundImageFix"/>
<feBlend mode="normal" in="SourceGraphic" in2="BackgroundImageFix" result="shape"/>
<feGaussianBlur stdDeviation="65.4612" result="effect1_foregroundBlur_501_3"/>
</filter>
<filter id="filter39_f_501_3" x="519.477" y="631.994" width="738.246" height="718.255" filterUnits="userSpaceOnUse" color-interpolation-filters="sRGB">
<feFlood flood-opacity="0" result="BackgroundImageFix"/>
<feBlend mode="normal" in="SourceGraphic" in2="BackgroundImageFix" result="shape"/>
<feGaussianBlur stdDeviation="114.999" result="effect1_foregroundBlur_501_3"/>
</filter>
<linearGradient id="paint0_linear_501_3" x1="1038.71" y1="778.768" x2="1038.71" y2="-187.493" gradientUnits="userSpaceOnUse">
<stop stop-color="white"/>
<stop offset="1" stop-color="white" stop-opacity="0"/>
</linearGradient>
<linearGradient id="paint1_linear_501_3" x1="2118.17" y1="878.95" x2="2118.17" y2="-87.3118" gradientUnits="userSpaceOnUse">
<stop stop-color="white"/>
<stop offset="1" stop-color="white" stop-opacity="0"/>
</linearGradient>
<linearGradient id="paint2_linear_501_3" x1="2129.39" y1="1827.31" x2="2129.39" y2="657.113" gradientUnits="userSpaceOnUse">
<stop stop-color="white"/>
<stop offset="1" stop-color="white" stop-opacity="0"/>
</linearGradient>
<linearGradient id="paint3_linear_501_3" x1="749.694" y1="692.361" x2="749.694" y2="5.38646e-06" gradientUnits="userSpaceOnUse">
<stop stop-color="white"/>
<stop offset="1" stop-color="white" stop-opacity="0"/>
</linearGradient>
<linearGradient id="paint4_linear_501_3" x1="508.898" y1="1037.96" x2="508.898" y2="9.65772" gradientUnits="userSpaceOnUse">
<stop stop-color="white"/>
<stop offset="1" stop-color="white" stop-opacity="0"/>
</linearGradient>
<linearGradient id="paint5_linear_501_3" x1="322.769" y1="1517.03" x2="322.769" y2="880.155" gradientUnits="userSpaceOnUse">
<stop stop-color="white"/>
<stop offset="1" stop-color="white" stop-opacity="0"/>
</linearGradient>
<linearGradient id="paint6_linear_501_3" x1="1133.76" y1="2160.17" x2="1133.76" y2="1432.32" gradientUnits="userSpaceOnUse">
<stop stop-color="white"/>
<stop offset="1" stop-color="white" stop-opacity="0"/>
</linearGradient>
<linearGradient id="paint7_linear_501_3" x1="1483.52" y1="1601.96" x2="1483.52" y2="1151.17" gradientUnits="userSpaceOnUse">
<stop stop-color="white"/>
<stop offset="1" stop-color="white" stop-opacity="0"/>
</linearGradient>
</defs>
</svg>
